<?xml version="1.0" standalone="no"?>
<!DOCTYPE svg PUBLIC "-//W3C//DTD SVG 20010904//EN"
 "http://www.w3.org/TR/2001/REC-SVG-20010904/DTD/svg10.dtd">
<svg version="1.0" xmlns="http://www.w3.org/2000/svg"
 width="96.000000pt" height="96.000000pt" viewBox="0 0 96.000000 96.000000"
 preserveAspectRatio="xMidYMid meet">
<metadata>
Created by potrace 1.11, written by Peter Selinger 2001-2013
</metadata>
<g transform="translate(0.000000,96.000000) scale(0.100000,-0.100000)"
fill="#000000" stroke="none">
<path d="M497 806 c-19 -19 -43 -55 -52 -81 -14 -35 -22 -44 -34 -39 -36 15
-72 16 -95 1 -16 -11 -36 -14 -59 -10 -102 16 -181 -122 -173 -303 7 -154 84
-266 171 -250 24 5 42 2 60 -10 17 -11 35 -14 57 -10 18 4 41 6 51 6 24 -1 94
-1 115 0 9 1 29 -2 44 -5 17 -5 39 -1 59 9 18 9 42 13 55 10 37 -9 69 3 105
39 52 52 74 123 74 242 0 94 -3 106 -33 167 -40 81 -82 113 -140 105 -24 -4
-44 0 -56 9 -23 17 -60 18 -87 3 -18 -9 -19 -7 -13 18 3 15 10 41 15 57 13 42
11 54 -11 66 -16 8 -25 4 -53 -24z"/>
</g>
</svg>
